<svg xmlns="http://www.w3.org/2000/svg" xmlns:xlink="http://www.w3.org/1999/xlink" width="500" zoomAndPan="magnify" viewBox="0 0 375 374.999991" height="500" preserveAspectRatio="xMidYMid meet" version="1.0"><defs><g/><clipPath id="a7ee6b5444"><rect x="0" width="197" y="0" height="134"/></clipPath><clipPath id="fadf9762be"><path d="M 34 0.398438 L 82 0.398438 L 82 76 L 34 76 Z M 34 0.398438 " clip-rule="nonzero"/></clipPath><clipPath id="0b26711325"><path d="M 124 0.398438 L 180 0.398438 L 180 76 L 124 76 Z M 124 0.398438 " clip-rule="nonzero"/></clipPath><clipPath id="a86eff31b6"><rect x="0" width="183" y="0" height="105"/></clipPath></defs><g transform="matrix(1, 0, 0, 1, 174, 108)"><g clip-path="url(#a7ee6b5444)"><g fill="#1b1b1b" fill-opacity="1"><g transform="translate(1.169351, 108.271174)"><g><path d="M 1.359375 -48.15625 L 14.65625 -48.15625 L 25.21875 -14.296875 L 25.765625 -14.296875 L 36.046875 -48.15625 L 49.4375 -48.15625 L 33.859375 0 L 16.84375 0 Z M 1.359375 -48.15625 "/></g></g></g><g fill="#1b1b1b" fill-opacity="1"><g transform="translate(43.586534, 108.271174)"><g><path d="M 21.578125 0.8125 C 15.628906 0.8125 11.03125 -1.445312 7.78125 -5.96875 C 4.53125 -10.488281 2.90625 -16.539062 2.90625 -24.125 C 2.90625 -31.769531 4.570312 -37.851562 7.90625 -42.375 C 11.25 -46.894531 15.863281 -49.15625 21.75 -49.15625 C 25.820312 -49.15625 28.945312 -48.257812 31.125 -46.46875 C 33.3125 -44.675781 34.832031 -42.875 35.6875 -41.0625 L 36.40625 -41.0625 L 36.40625 -48.15625 L 50.703125 -48.15625 L 50.703125 0 L 36.40625 0 L 36.40625 -7.734375 L 35.6875 -7.734375 C 34.769531 -5.796875 33.203125 -3.882812 30.984375 -2 C 28.773438 -0.125 25.640625 0.8125 21.578125 0.8125 Z M 26.9375 -10.5625 C 30.15625 -10.5625 32.550781 -11.910156 34.125 -14.609375 C 35.707031 -17.304688 36.5 -20.507812 36.5 -24.21875 C 36.5 -27.851562 35.707031 -31.019531 34.125 -33.71875 C 32.550781 -36.425781 30.15625 -37.78125 26.9375 -37.78125 C 23.601562 -37.78125 21.160156 -36.457031 19.609375 -33.8125 C 18.066406 -31.175781 17.296875 -28.007812 17.296875 -24.3125 C 17.296875 -20.539062 18.066406 -17.304688 19.609375 -14.609375 C 21.160156 -11.910156 23.601562 -10.5625 26.9375 -10.5625 Z M 26.9375 -10.5625 "/></g></g></g><g fill="#1b1b1b" fill-opacity="1"><g transform="translate(92.375411, 108.271174)"><g><path d="M 4.734375 -48.15625 L 18.9375 -48.15625 L 18.9375 -41.140625 L 19.65625 -41.140625 C 20.6875 -43.390625 22.367188 -45.285156 24.703125 -46.828125 C 27.046875 -48.378906 29.882812 -49.15625 33.21875 -49.15625 C 39.53125 -49.15625 43.898438 -47.164062 46.328125 -43.1875 C 48.753906 -39.21875 49.96875 -34.773438 49.96875 -29.859375 L 49.96875 0 L 35.78125 0 L 35.78125 -27.40625 C 35.78125 -30.5625 35.082031 -33.046875 33.6875 -34.859375 C 32.289062 -36.679688 30.222656 -37.59375 27.484375 -37.59375 C 24.578125 -37.59375 22.425781 -36.632812 21.03125 -34.71875 C 19.632812 -32.8125 18.9375 -30.375 18.9375 -27.40625 L 18.9375 0 L 4.734375 0 Z M 4.734375 -48.15625 "/></g></g></g><g fill="#1b1b1b" fill-opacity="1"><g transform="translate(138.888686, 108.271174)"><g><path d="M 24.3125 -37.140625 L 24.3125 -17.84375 C 24.3125 -15.71875 24.414062 -14.15625 24.625 -13.15625 C 24.832031 -12.15625 25.4375 -11.347656 26.4375 -10.734375 C 27.445312 -10.128906 29.070312 -9.828125 31.3125 -9.828125 C 32.46875 -9.828125 33.648438 -9.953125 34.859375 -10.203125 L 34.859375 -0.359375 C 34.253906 -0.242188 33.039062 -0.113281 31.21875 0.03125 C 29.40625 0.1875 27.585938 0.265625 25.765625 0.265625 C 21.023438 0.265625 17.515625 -0.429688 15.234375 -1.828125 C 12.960938 -3.222656 11.554688 -4.921875 11.015625 -6.921875 C 10.472656 -8.921875 10.203125 -11.53125 10.203125 -14.75 L 10.203125 -37.140625 L 2.453125 -37.140625 L 2.453125 -48.15625 L 10.203125 -48.15625 L 10.203125 -63.71875 L 24.3125 -63.71875 L 24.3125 -48.15625 L 34.859375 -48.15625 L 34.859375 -37.140625 Z M 24.3125 -37.140625 "/></g></g></g><g fill="#1b1b1b" fill-opacity="1"><g transform="translate(170.74709, 108.271174)"><g><path d="M 15.296875 0.8125 C 13.046875 0.8125 11.191406 0.0546875 9.734375 -1.453125 C 8.285156 -2.972656 7.5625 -4.828125 7.5625 -7.015625 C 7.5625 -9.191406 8.285156 -11.023438 9.734375 -12.515625 C 11.191406 -14.003906 13.046875 -14.75 15.296875 -14.75 C 17.535156 -14.75 19.398438 -14.003906 20.890625 -12.515625 C 22.378906 -11.023438 23.125 -9.191406 23.125 -7.015625 C 23.125 -4.828125 22.363281 -2.972656 20.84375 -1.453125 C 19.332031 0.0546875 17.484375 0.8125 15.296875 0.8125 Z M 15.296875 0.8125 "/></g></g></g></g></g><g transform="matrix(1, 0, 0, 1, 8, 140)"><g clip-path="url(#a86eff31b6)"><g fill="#1b1b1b" fill-opacity="1"><g transform="translate(0.599628, 74.556924)"><g><path d="M 24.34375 -47.140625 C 26.820312 -47.140625 29.160156 -46.554688 31.359375 -45.390625 C 32.597656 -44.835938 33.457031 -44.5625 33.9375 -44.5625 C 35.238281 -44.5625 36.304688 -45.421875 37.140625 -47.140625 L 39 -47.140625 L 36.203125 -31.46875 L 34.34375 -31.46875 C 34.34375 -35.9375 33.46875 -39.300781 31.71875 -41.5625 C 29.96875 -43.832031 27.816406 -44.96875 25.265625 -44.96875 C 23.410156 -44.96875 21.878906 -44.382812 20.671875 -43.21875 C 19.472656 -42.050781 18.875 -40.742188 18.875 -39.296875 C 18.875 -37.648438 19.351562 -35.984375 20.3125 -34.296875 C 21.28125 -32.609375 22.796875 -30.390625 24.859375 -27.640625 C 27.203125 -24.617188 28.988281 -21.972656 30.21875 -19.703125 C 31.457031 -17.429688 32.078125 -15.054688 32.078125 -12.578125 C 32.078125 -10.242188 31.441406 -8.023438 30.171875 -5.921875 C 28.898438 -3.828125 27.09375 -2.109375 24.75 -0.765625 C 22.414062 0.566406 19.703125 1.234375 16.609375 1.234375 C 14.816406 1.234375 12.648438 0.785156 10.109375 -0.109375 C 8.316406 -0.648438 7.148438 -0.921875 6.609375 -0.921875 C 5.296875 -0.921875 4.125 -0.203125 3.09375 1.234375 L 0.921875 1.234375 L 3.921875 -15.265625 L 5.984375 -15.265625 C 6.253906 -11.140625 7.09375 -7.71875 8.5 -5 C 9.914062 -2.28125 12.550781 -0.921875 16.40625 -0.921875 C 19.082031 -0.921875 21.175781 -1.832031 22.6875 -3.65625 C 24.207031 -5.476562 24.96875 -7.390625 24.96875 -9.390625 C 24.96875 -10.828125 24.550781 -12.320312 23.71875 -13.875 C 22.894531 -15.425781 21.96875 -16.957031 20.9375 -18.46875 C 19.90625 -19.976562 19.21875 -20.972656 18.875 -21.453125 L 17.328125 -23.71875 C 15.535156 -26.195312 14.207031 -28.328125 13.34375 -30.109375 C 12.488281 -31.898438 12.0625 -33.828125 12.0625 -35.890625 C 12.0625 -38.367188 12.710938 -40.453125 14.015625 -42.140625 C 15.328125 -43.828125 16.945312 -45.082031 18.875 -45.90625 C 20.800781 -46.726562 22.625 -47.140625 24.34375 -47.140625 Z M 24.34375 -47.140625 "/></g></g></g><g clip-path="url(#fadf9762be)"><g fill="#1b1b1b" fill-opacity="1"><g transform="translate(33.090685, 74.556924)"><g><path d="M 30.328125 -73.96875 L 15.78125 -23.3125 L 15.984375 -23.109375 C 20.523438 -30.535156 24.992188 -36.394531 29.390625 -40.6875 C 33.796875 -44.988281 37.820312 -47.140625 41.46875 -47.140625 C 42.769531 -47.140625 44.023438 -46.570312 45.234375 -45.4375 C 46.441406 -44.300781 47.046875 -42.804688 47.046875 -40.953125 C 47.046875 -38.753906 46.5625 -35.96875 45.59375 -32.59375 L 39.515625 -11.65625 C 39.023438 -10.070312 38.675781 -8.832031 38.46875 -7.9375 C 38.269531 -7.050781 38.171875 -6.296875 38.171875 -5.671875 C 38.171875 -5.054688 38.289062 -4.609375 38.53125 -4.328125 C 38.769531 -4.054688 39.023438 -3.921875 39.296875 -3.921875 C 40.054688 -3.921875 41.242188 -4.757812 42.859375 -6.4375 C 44.472656 -8.125 45.796875 -9.691406 46.828125 -11.140625 L 48.375 -10 C 46.59375 -7.320312 44.328125 -4.78125 41.578125 -2.375 C 38.828125 0.03125 36.316406 1.234375 34.046875 1.234375 C 32.804688 1.234375 31.820312 0.789062 31.09375 -0.09375 C 30.375 -0.988281 30.015625 -2.023438 30.015625 -3.203125 C 30.015625 -4.785156 30.394531 -6.8125 31.15625 -9.28125 L 37.34375 -30.953125 C 38.375 -34.316406 38.890625 -36.65625 38.890625 -37.96875 C 38.890625 -39 38.628906 -39.820312 38.109375 -40.4375 C 37.597656 -41.050781 36.960938 -41.359375 36.203125 -41.359375 C 34.078125 -41.359375 31.378906 -39.691406 28.109375 -36.359375 C 24.835938 -33.023438 21.414062 -28.570312 17.84375 -23 C 15.507812 -19.21875 13.6875 -15.128906 12.375 -10.734375 L 9.1875 0 L 1.4375 0 L 17.53125 -56.015625 C 18.5 -59.242188 19.1875 -61.648438 19.59375 -63.234375 C 20.007812 -64.816406 20.21875 -66.019531 20.21875 -66.84375 C 20.21875 -68.082031 19.769531 -68.851562 18.875 -69.15625 C 17.976562 -69.46875 16.5 -69.625 14.4375 -69.625 L 14.4375 -71.484375 L 28.578125 -73.96875 Z M 30.328125 -73.96875 "/></g></g></g></g><g fill="#1b1b1b" fill-opacity="1"><g transform="translate(77.443864, 74.556924)"><g><path d="M 32.078125 -47.140625 C 33.929688 -47.140625 35.613281 -46.503906 37.125 -45.234375 C 38.644531 -43.960938 39.578125 -42.191406 39.921875 -39.921875 L 40.125 -39.921875 L 41.78125 -46 L 49.921875 -47.140625 L 39.296875 -9.90625 C 39.234375 -9.769531 39.0625 -9.253906 38.78125 -8.359375 C 38.507812 -7.460938 38.375 -6.566406 38.375 -5.671875 C 38.375 -5.117188 38.507812 -4.6875 38.78125 -4.375 C 39.0625 -4.070312 39.375 -3.921875 39.71875 -3.921875 C 40.613281 -3.921875 41.75 -4.539062 43.125 -5.78125 C 44.5 -7.019531 45.804688 -8.738281 47.046875 -10.9375 L 48.59375 -9.90625 C 46.726562 -6.46875 44.367188 -3.75 41.515625 -1.75 C 38.660156 0.238281 36.132812 1.234375 33.9375 1.234375 C 32.695312 1.234375 31.765625 0.789062 31.140625 -0.09375 C 30.523438 -0.988281 30.21875 -2.09375 30.21875 -3.40625 C 30.21875 -4.300781 30.40625 -5.757812 30.78125 -7.78125 C 31.164062 -9.8125 31.769531 -11.859375 32.59375 -13.921875 L 32.390625 -14.125 C 24.691406 -3.882812 17.710938 1.234375 11.453125 1.234375 C 8.703125 1.234375 6.515625 0.0507812 4.890625 -2.3125 C 3.273438 -4.6875 2.46875 -7.421875 2.46875 -10.515625 C 2.46875 -15.878906 4.03125 -21.429688 7.15625 -27.171875 C 10.289062 -32.921875 14.179688 -37.6875 18.828125 -41.46875 C 23.472656 -45.25 27.890625 -47.140625 32.078125 -47.140625 Z M 10.734375 -12.484375 C 10.734375 -9.796875 11.347656 -7.832031 12.578125 -6.59375 C 13.816406 -5.363281 15.265625 -4.75 16.921875 -4.75 C 19.046875 -4.75 21.347656 -5.707031 23.828125 -7.625 C 26.304688 -9.550781 28.59375 -12.007812 30.6875 -15 C 32.78125 -18 34.34375 -21.046875 35.375 -24.140625 C 36.414062 -27.160156 37.175781 -29.648438 37.65625 -31.609375 C 38.132812 -33.578125 38.375 -35.488281 38.375 -37.34375 C 38.375 -40.019531 37.753906 -41.992188 36.515625 -43.265625 C 35.273438 -44.546875 33.832031 -45.1875 32.1875 -45.1875 C 28.957031 -45.1875 25.671875 -43.207031 22.328125 -39.25 C 18.992188 -35.289062 16.226562 -30.664062 14.03125 -25.375 C 11.832031 -20.082031 10.734375 -15.785156 10.734375 -12.484375 Z M 10.734375 -12.484375 "/></g></g></g><g clip-path="url(#0b26711325)"><g fill="#1b1b1b" fill-opacity="1"><g transform="translate(121.797042, 74.556924)"><g><path d="M 39.8125 -9.703125 C 39.195312 -7.429688 38.890625 -5.914062 38.890625 -5.15625 C 38.890625 -4.738281 39.007812 -4.394531 39.25 -4.125 C 39.488281 -3.851562 39.78125 -3.71875 40.125 -3.71875 C 40.945312 -3.71875 42.148438 -4.421875 43.734375 -5.828125 C 45.316406 -7.234375 46.796875 -8.96875 48.171875 -11.03125 L 49.625 -9.703125 C 47.488281 -6.597656 45.007812 -4 42.1875 -1.90625 C 39.375 0.1875 37.035156 1.234375 35.171875 1.234375 C 33.867188 1.234375 32.835938 0.753906 32.078125 -0.203125 C 31.328125 -1.171875 30.953125 -2.269531 30.953125 -3.5 C 30.953125 -4.601562 31.085938 -5.789062 31.359375 -7.0625 C 31.628906 -8.332031 31.867188 -9.210938 32.078125 -9.703125 L 34.453125 -17.75 L 34.25 -17.953125 C 30.945312 -13.066406 27.332031 -8.644531 23.40625 -4.6875 C 19.488281 -0.738281 15.742188 1.234375 12.171875 1.234375 C 9.285156 1.234375 7.03125 -0.101562 5.40625 -2.78125 C 3.789062 -5.46875 2.984375 -8.425781 2.984375 -11.65625 C 2.984375 -16.882812 4.582031 -22.28125 7.78125 -27.84375 C 10.976562 -33.414062 14.96875 -38.023438 19.75 -41.671875 C 24.53125 -45.316406 29.125 -47.140625 33.53125 -47.140625 C 36.6875 -47.140625 39.367188 -45.695312 41.578125 -42.8125 L 47.25 -62.609375 C 47.863281 -64.816406 48.171875 -66.398438 48.171875 -67.359375 C 48.171875 -68.390625 47.757812 -69.039062 46.9375 -69.3125 C 46.113281 -69.59375 45.015625 -69.734375 43.640625 -69.734375 L 40.75 -69.625 L 40.640625 -71.171875 L 56.328125 -73.96875 L 58.1875 -73.96875 Z M 20.109375 -35.484375 C 17.640625 -31.972656 15.613281 -28.101562 14.03125 -23.875 C 12.445312 -19.644531 11.65625 -15.78125 11.65625 -12.28125 C 11.65625 -9.664062 12.117188 -7.738281 13.046875 -6.5 C 13.972656 -5.257812 15.226562 -4.640625 16.8125 -4.640625 C 19.425781 -4.640625 22.519531 -6.566406 26.09375 -10.421875 C 29.675781 -14.273438 32.769531 -18.863281 35.375 -24.1875 C 37.988281 -29.519531 39.296875 -34.210938 39.296875 -38.265625 C 39.296875 -40.609375 38.625 -42.347656 37.28125 -43.484375 C 35.945312 -44.617188 34.554688 -45.1875 33.109375 -45.1875 C 31.117188 -45.1875 28.96875 -44.304688 26.65625 -42.546875 C 24.351562 -40.796875 22.171875 -38.441406 20.109375 -35.484375 Z M 20.109375 -35.484375 "/></g></g></g></g></g></g></svg>