<svg xmlns="http://www.w3.org/2000/svg" xmlns:xlink="http://www.w3.org/1999/xlink" width="500" zoomAndPan="magnify" viewBox="0 0 375 374.999991" height="500" preserveAspectRatio="xMidYMid meet" version="1.0"><defs><g/><clipPath id="cd9d799dea"><path d="M 26.285156 21.628906 L 354.273438 21.628906 L 354.273438 349.613281 L 26.285156 349.613281 Z M 26.285156 21.628906 " clip-rule="nonzero"/></clipPath><clipPath id="3103ff7dfa"><path d="M 190.277344 21.628906 C 99.707031 21.628906 26.285156 95.050781 26.285156 185.621094 C 26.285156 276.191406 99.707031 349.613281 190.277344 349.613281 C 280.851562 349.613281 354.273438 276.191406 354.273438 185.621094 C 354.273438 95.050781 280.851562 21.628906 190.277344 21.628906 Z M 190.277344 21.628906 " clip-rule="nonzero"/></clipPath><clipPath id="58a12162f8"><path d="M 0.285156 0.628906 L 328.273438 0.628906 L 328.273438 328.613281 L 0.285156 328.613281 Z M 0.285156 0.628906 " clip-rule="nonzero"/></clipPath><clipPath id="6309f95a6c"><path d="M 164.277344 0.628906 C 73.707031 0.628906 0.285156 74.050781 0.285156 164.621094 C 0.285156 255.191406 73.707031 328.613281 164.277344 328.613281 C 254.851562 328.613281 328.273438 255.191406 328.273438 164.621094 C 328.273438 74.050781 254.851562 0.628906 164.277344 0.628906 Z M 164.277344 0.628906 " clip-rule="nonzero"/></clipPath><clipPath id="f1cc6c1adb"><rect x="0" width="329" y="0" height="329"/></clipPath><clipPath id="4be7f2e06f"><rect x="0" width="267" y="0" height="328"/></clipPath><clipPath id="ba42aa98c5"><path d="M 1 84 L 212 84 L 212 276 L 1 276 Z M 1 84 " clip-rule="nonzero"/></clipPath><clipPath id="0a981584c8"><rect x="0" width="212" y="0" height="301"/></clipPath></defs><g clip-path="url(#cd9d799dea)"><g clip-path="url(#3103ff7dfa)"><g transform="matrix(1, 0, 0, 1, 26, 21)"><g clip-path="url(#f1cc6c1adb)"><g clip-path="url(#58a12162f8)"><g clip-path="url(#6309f95a6c)"><path fill="#000000" d="M 0.285156 0.628906 L 328.273438 0.628906 L 328.273438 328.613281 L 0.285156 328.613281 Z M 0.285156 0.628906 " fill-opacity="1" fill-rule="nonzero"/></g></g></g></g></g></g><g transform="matrix(1, 0, 0, 1, 9, 0)"><g clip-path="url(#4be7f2e06f)"><g fill="#ffffff" fill-opacity="1"><g transform="translate(53.31492, 217.794124)"><g><path d="M 108.3125 -64.78125 L 81.5625 -63.734375 C 65.125 -63.734375 54.0625 -64.300781 48.375 -65.4375 C 42.695312 -66.570312 37.628906 -67.925781 33.171875 -69.5 C 28.710938 -71.070312 25.171875 -72.90625 22.546875 -75 C 16.078125 -79.894531 12.84375 -86.453125 12.84375 -94.671875 C 12.84375 -97.117188 14.328125 -100.789062 17.296875 -105.6875 C 20.273438 -110.582031 25.390625 -116.394531 32.640625 -123.125 C 39.898438 -129.851562 48.554688 -136.234375 58.609375 -142.265625 C 68.660156 -148.296875 81.90625 -153.582031 98.34375 -158.125 C 114.78125 -162.675781 132.613281 -165.300781 151.84375 -166 C 158.664062 -166 165.878906 -165.164062 173.484375 -163.5 C 181.085938 -161.84375 187.378906 -159.878906 192.359375 -157.609375 C 197.335938 -155.335938 201.75 -151.882812 205.59375 -147.25 C 209.445312 -142.613281 211.375 -137.238281 211.375 -131.125 C 211.375 -126.226562 206.65625 -120.984375 197.21875 -115.390625 C 186.726562 -109.097656 172.867188 -105.953125 155.640625 -105.953125 C 138.421875 -105.953125 129.8125 -107.175781 129.8125 -109.625 C 129.8125 -111.539062 134.835938 -113.8125 144.890625 -116.4375 C 154.941406 -119.0625 165.035156 -122.117188 175.171875 -125.609375 C 185.316406 -129.109375 190.390625 -133.046875 190.390625 -137.421875 C 190.390625 -139.691406 186.546875 -140.828125 178.859375 -140.828125 C 128.148438 -140.828125 84.613281 -127.710938 48.25 -101.484375 C 41.4375 -96.421875 38.03125 -92.050781 38.03125 -88.375 C 38.03125 -82.601562 56.210938 -79.71875 92.578125 -79.71875 C 125.265625 -79.375 141.609375 -70.632812 141.609375 -53.5 C 141.609375 -41.257812 133.300781 -29.628906 116.6875 -18.609375 C 100.082031 -7.597656 80.546875 0.960938 58.078125 7.078125 C 35.617188 13.203125 14.507812 16.347656 -5.25 16.515625 C -14.507812 16.515625 -24.296875 14.066406 -34.609375 9.171875 C -44.929688 4.273438 -50.09375 -1.664062 -50.09375 -8.65625 C -50.09375 -10.925781 -48.164062 -12.148438 -44.3125 -12.328125 C -23.6875 -14.597656 -10.488281 -17.046875 -4.71875 -19.671875 C -3.320312 -20.015625 -2.1875 -20.1875 -1.3125 -20.1875 C -0.4375 -20.1875 0 -20.015625 0 -19.671875 C 0 -18.972656 -1.046875 -17.835938 -3.140625 -16.265625 C -5.066406 -15.210938 -7.164062 -14.25 -9.4375 -13.375 C -14.332031 -11.625 -16.78125 -10.484375 -16.78125 -9.953125 C -16.78125 -9.429688 -15.03125 -9.171875 -11.53125 -9.171875 C -8.039062 -9.171875 0.78125 -10.570312 14.9375 -13.375 C 29.101562 -16.175781 44.269531 -19.757812 60.4375 -24.125 C 76.613281 -28.5 90.910156 -33.921875 103.328125 -40.390625 C 115.742188 -46.859375 121.953125 -53.0625 121.953125 -59 C 121.953125 -62.851562 117.40625 -64.78125 108.3125 -64.78125 Z M 108.3125 -64.78125 "/></g></g></g></g></g><g transform="matrix(1, 0, 0, 1, 163, 74)"><g clip-path="url(#0a981584c8)"><g clip-path="url(#ba42aa98c5)"><g fill="#ffffff" fill-opacity="1"><g transform="translate(4.336376, 257.725913)"><g><path d="M 87.328125 -172.828125 C 110.410156 -172.828125 121.953125 -163.382812 121.953125 -144.5 C 121.953125 -141.175781 120.289062 -134.878906 116.96875 -125.609375 C 113.644531 -116.347656 107.4375 -104.15625 98.34375 -89.03125 C 89.25 -73.90625 78.582031 -60.140625 66.34375 -47.734375 C 59.351562 -39.515625 55.859375 -35.097656 55.859375 -34.484375 C 55.859375 -33.867188 56.117188 -33.5625 56.640625 -33.5625 C 65.734375 -44.40625 78.800781 -58.566406 95.84375 -76.046875 C 112.894531 -93.535156 127.929688 -108.09375 140.953125 -119.71875 C 153.984375 -131.34375 168.054688 -141.914062 183.171875 -151.4375 C 198.296875 -160.96875 210.054688 -165.734375 218.453125 -165.734375 C 226.847656 -165.734375 233.578125 -164.332031 238.640625 -161.53125 C 243.710938 -158.738281 246.25 -154.632812 246.25 -149.21875 C 246.25 -146.070312 245.203125 -144.5 243.109375 -144.5 C 230.515625 -144.144531 216.265625 -139.90625 200.359375 -131.78125 C 184.453125 -123.65625 169.195312 -113.601562 154.59375 -101.625 C 140 -89.644531 125.140625 -76.660156 110.015625 -62.671875 C 94.890625 -48.691406 81.382812 -35.753906 69.5 -23.859375 C 41.695312 3.929688 23.863281 17.828125 16 17.828125 C 14.769531 17.828125 13.632812 17.566406 12.59375 17.046875 C 11.539062 16.171875 9.878906 14.988281 7.609375 13.5 C 5.335938 12.019531 3.5 10.796875 2.09375 9.828125 C 0.695312 8.867188 0 7.820312 0 6.6875 C 0 5.550781 1.046875 3.847656 3.140625 1.578125 C 23.421875 -19.398438 40.46875 -40.90625 54.28125 -62.9375 C 67.570312 -84.269531 79.023438 -105.078125 88.640625 -125.359375 L 93.890625 -136.625 C 97.210938 -143.625 98.875 -148.390625 98.875 -150.921875 C 98.875 -153.460938 98.171875 -154.734375 96.765625 -154.734375 C 92.742188 -154.734375 84.304688 -151.144531 71.453125 -143.96875 C 58.609375 -136.800781 44.972656 -127.359375 30.546875 -115.640625 C 16.128906 -103.929688 6.296875 -93.097656 1.046875 -83.140625 C -0.347656 -81.734375 -1.351562 -81.03125 -1.96875 -81.03125 C -2.582031 -81.03125 -2.890625 -81.554688 -2.890625 -82.609375 C -2.890625 -88.023438 -0.179688 -95.71875 5.234375 -105.6875 C 10.660156 -115.65625 17.484375 -125.664062 25.703125 -135.71875 C 33.921875 -145.769531 43.664062 -154.46875 54.9375 -161.8125 C 66.21875 -169.15625 77.015625 -172.828125 87.328125 -172.828125 Z M 87.328125 -172.828125 "/></g></g></g></g></g></g></svg>